<?xml version="1.0" encoding="utf-8"?>
<!-- Generator: Adobe Illustrator 19.1.0, SVG Export Plug-In . SVG Version: 6.00 Build 0)  -->
<svg version="1.1" id="Layer_1" xmlns="http://www.w3.org/2000/svg" xmlns:xlink="http://www.w3.org/1999/xlink" x="0px" y="0px"
	 viewBox="-245 157 246 288" style="enable-background:new -245 157 246 288;" xml:space="preserve">
<style type="text/css">
	.st0{fill:#FFE3C0;}
	.st1{fill:#663300;}
	.st2{fill:#FDAA83;}
	.st3{fill:#332E27;}
	.st4{fill:#003366;}
	.st5{fill:#FFFFFF;}
	.st6{fill:#333333;}
</style>
<path d="M-137,157h48v6h18v6h18v-6h6v-6h6v12h-6v18h6v6h6v6h6v18h6v24h6v6h6v6h6v6h6v6h-12v-6h-12v24h-6v18h-12v18h12v-18h6v6h6v6h6
	v12h6v18h6v36h-6v18h-6v12h-6v6h-6v6h-6v-60h-6v-18h-6v-12h-12v-6h6v-6h-6v-30h12v-24h-6v-6h-6v-6h6v-6h-18v-6h-6v-12h-12v6h-24v6
	h-12v-6h-24v-6h-12v12h-6v6h-18v6h6v6h-6v6h-6v24h12v30h-6v6h-18v-6h12v-18h-12v-18h-12v6h-12v-6h6v-6h6v-6h6v-54h6v-18h6v-12h-6
	v-12h6v6h6v6h6v-6h6v-6h6v-6h12v-6h18V157z"/>
<path d="M-233,169h12v6h-6v24h-18v-12h12V169z"/>
<path d="M-221,175h6v12h-6V175z"/>
<path class="st0" d="M-155,229h12v6h24v6h12v-6h24v-6h12v12h6v6h18v6h-6v6h6v6h6v24h-12v-6h6v-6h-6v-6h-30v6h-6v6h-6v6h-6v6h-24v-6
	h-6v-6h-6v-6h-6v-6h-30v6h-6v6h6v6h-12v-24h6v-6h6v-6h-6v-6h18v-6h6V229z"/>
<path d="M-173,271h30v6h-30V271z"/>
<path d="M-83,271h30v6h-30V271z"/>
<path d="M-179,277h6v6h-6V277z"/>
<path class="st0" d="M-173,277h30v6h-30V277z"/>
<path d="M-143,277h6v6h6v6h-42v-6h30V277z"/>
<path d="M-89,277h6v6h30v6h-42v-6h6V277z"/>
<path class="st0" d="M-83,277h30v6h-30V277z"/>
<path d="M-53,277h6v6h-6V277z"/>
<path class="st0" d="M-173,289h42v30h-42V289z"/>
<path d="M-131,289h6v6h24v-6h6v30h-6v-18h-24v18h-6V289z"/>
<path class="st0" d="M-95,289h42v30h-42V289z"/>
<path class="st1" d="M-161,295h12v12h-12V295z"/>
<path class="st1" d="M-77,295h12v12h-12V295z"/>
<path d="M-203,301h6v18h-6V301z"/>
<path class="st0" d="M-197,301h12v12h-12V301z"/>
<path class="st0" d="M-125,301h24v18h6v6h36v6h-12v6h-24v-6h-6v6h-24v-6h-6v6h-24v-6h-12v-6h36v-6h6V301z"/>
<path class="st0" d="M-41,301h12v12h-12V301z"/>
<path class="st2" d="M-197,313h12v6h-12V313z"/>
<path class="st2" d="M-41,313h12v6h-12V313z"/>
<path class="st2" d="M-179,319h6v6h-6V319z"/>
<path d="M-173,319h42v6h-42V319z"/>
<path d="M-95,319h42v6h-42V319z"/>
<path class="st2" d="M-53,319h6v6h-6V319z"/>
<path d="M-179,325h6v6h-6V325z"/>
<path class="st2" d="M-173,325h6v6h-6V325z"/>
<path class="st2" d="M-59,325h6v6h-6V325z"/>
<path d="M-173,331h6v6h-6V331z"/>
<path class="st2" d="M-167,331h12v6h-12V331z"/>
<path d="M-131,331h6v6h-6V331z"/>
<path d="M-101,331h6v6h-6V331z"/>
<path class="st2" d="M-71,331h12v6h-12V331z"/>
<path d="M-59,331h6v6h-6V331z"/>
<path d="M-167,337h12v6h-12V337z"/>
<path class="st2" d="M-155,337h30v6h-30V337z"/>
<path d="M-125,337h24v6h-24V337z"/>
<path class="st2" d="M-101,337h30v6h-30V337z"/>
<path d="M-71,337h12v6h-12V337z"/>
<path d="M-155,343h18v12h-6v-6h-12V343z"/>
<path class="st3" d="M-137,343h48v6h-48V343z"/>
<path d="M-89,343h18v6h-12v6h-6V343z"/>
<path d="M-161,349h6v6h12v6h-18V349z"/>
<path class="st4" d="M-155,349h12v6h-12V349z"/>
<path class="st5" d="M-137,349h6v6h-6V349z"/>
<path d="M-131,349h6v6h-6V349z"/>
<path class="st0" d="M-125,349h24v6h-24V349z"/>
<path d="M-101,349h6v6h-6V349z"/>
<path class="st5" d="M-95,349h6v6h-6V349z"/>
<path class="st4" d="M-83,349h12v6h-12V349z"/>
<path d="M-71,349h6v12h-18v-6h12V349z"/>
<path class="st4" d="M-143,355h6v6h-6V355z"/>
<path d="M-137,355h6v6h-6V355z"/>
<path class="st5" d="M-131,355h6v6h-6V355z"/>
<path d="M-125,355h24v6h-24V355z"/>
<path class="st5" d="M-101,355h6v6h-6V355z"/>
<path d="M-95,355h6v6h-6V355z"/>
<path class="st4" d="M-89,355h6v6h-6V355z"/>
<path d="M-167,361h6v12h-6V361z"/>
<path class="st4" d="M-161,361h18v6h6v18h6v-12h6v18h-12v6h-6v12h-6v-18h6v-12h-6v12h-6v6h-12v-6h-6v-6h6v-12h6V361z"/>
<path d="M-143,361h6v6h-6V361z"/>
<path class="st4" d="M-137,361h6v6h-6V361z"/>
<path d="M-131,361h6v12h-6v12h-6v-18h6V361z"/>
<path class="st5" d="M-125,361h24v12h-6v30h-12v-30h-6V361z"/>
<path d="M-101,361h6v6h6v18h-6v-12h-6V361z"/>
<path class="st4" d="M-95,361h6v6h-6V361z"/>
<path d="M-89,361h6v6h-6V361z"/>
<path class="st4" d="M-83,361h18v12h6v12h6v6h-6v6h-12v-6h-6v-12h-6v12h6v18h-6v-12h-6v-6h-12v-18h6v12h6v-18h6V361z"/>
<path d="M-65,361h6v12h-6V361z"/>
<path d="M-173,373h6v12h-6V373z"/>
<path d="M-125,373h6v30h12v-30h6v18h12v6h-12v12h12v-12h6v12h6v30h-6v-6h-18v6h18v6h-24v-30h-12v30h-24v-6h18v-6h-18v6h-6v-30h6v-12
	h6v12h12v-12h-12v-6h12V373z"/>
<path d="M-59,373h6v12h-6V373z"/>
<path d="M-149,379h6v12h-6V379z"/>
<path d="M-83,379h6v12h-6V379z"/>
<path d="M-179,385h6v6h6v6h-6v6h-6V385z"/>
<path d="M-53,385h6v18h-6v-6h-6v-6h6V385z"/>
<path d="M-155,391h6v18h-6v-6h-12v-6h12V391z"/>
<path d="M-77,391h6v6h12v6h-12v6h-6V391z"/>
<path class="st2" d="M-173,397h6v6h-6V397z"/>
<path class="st4" d="M-137,397h12v12h-12V397z"/>
<path class="st4" d="M-101,397h12v12h-12V397z"/>
<path class="st2" d="M-59,397h6v6h-6V397z"/>
<path d="M-173,403h6v6h-6V403z"/>
<path class="st2" d="M-167,403h12v6h-12V403z"/>
<path class="st2" d="M-71,403h12v6h-12V403z"/>
<path d="M-59,403h6v6h-6V403z"/>
<path d="M-167,409h12v6h-12V409z"/>
<path d="M-71,409h12v6h-12V409z"/>
<path class="st6" d="M-143,415h18v12h-18V415z"/>
<path class="st6" d="M-101,415h18v12h-18V415z"/>
<path class="st1" d="M-143,433h18v6h-18V433z"/>
<path class="st1" d="M-101,433h18v6h-18V433z"/>
</svg>
