<?xml version="1.0" encoding="utf-8"?>
<!-- generated at drububu.com  -->
<!DOCTYPE svg PUBLIC "-//W3C//DTD SVG 1.1//EN" "http://www.w3.org/Graphics/SVG/1.1/DTD/svg11.dtd">
<svg version="1.1" preserveAspectRatio="xMinYMin meet" xmlns="http://www.w3.org/2000/svg" xmlns:xlink="http://www.w3.org/1999/xlink" x="0px" y="0px" width="96px" height="96px" viewBox="0 0 96 96">
<path d="M0 0h40v2h-6v2h-4v2h-2v2h-2v2h-2v-2h-2v-2h-2v4h2v4h-2v6h-2v18h-2v2h-2
	v2h-2v2h4v-2h4v6h-2v6h2v2h6v2h2v2h2v2h4v2h-2v4h-2v4h-2v4h-2v6h2v2h2v2h4v-2h2v10
	h2v2h-38z" fill="rgb(255,255,255)"/>
<path d="M40 0h16v2h6v2h6v-2h2v-2h2v4h-2v6h2v2h2v2h2v6h2v8h2v2h2v2h2v2h2v2h-4
	v-2h-4v8h-2v6h-4v6h4v-6h2v2h2v2h2v4h2v6h2v12h-2v6h-2v4h-2v2h-2v2h-2v-20h-2v-6h-2
	v-4h-4v-2h2v-2h-2v-10h4v-8h-2v-2h-2v-2h2v-2h-6v-2h-2v-4h-4v2h-8v2h-4v-2h-8v-2
	h-4v4h-2v2h-6v2h2v2h-2v2h-2v8h4v10h-2v2h-6v-2h4v-6h-4v-6h-4v2h-4v-2h2v-2h2v-2h2
	v-18h2v-6h2v-4h-2v-4h2v2h2v2h2v-2h2v-2h2v-2h4v-2h6z" fill="rgb(0,0,0)"/>
<path d="M56 0h14v2h-2v2h-6v-2h-6z" fill="rgb(255,255,255)"/>
<path d="M72 0h24v96h-38v-2h2v-10h2v2h4v-2h2v-2h2v-6h-2v-4h-2v-4h-2v-4h-2v-2h4
	v-2h2v-2h4v4h2v6h2v20h2v-2h2v-2h2v-4h2v-6h2v-12h-2v-6h-2v-4h-2v-2h-2v-2h-2v-6h2
	v-8h4v2h4v-2h-2v-2h-2v-2h-2v-2h-2v-8h-2v-6h-2v-2h-2v-2h-2v-6h2z" fill="rgb(255,255,255)"/>
<path d="M8 4h4v2h-2v8h-6v-4h4z" fill="rgb(0,0,0)"/>
<path d="M12 6h2v4h-2z" fill="rgb(0,0,0)"/>
<path d="M34 24h4v2h8v2h4v-2h8v-2h4v4h2v2h6v2h-2v2h2v2h2v8h-4v-2h2v-2h-2v-2h-10
	v2h-2v2h-2v2h-2v2h-8v-2h-2v-2h-2v-2h-2v-2h-10v2h-2v2h2v2h-4v-8h2v-2h2v-2h-2v-2
	h6v-2h2z" fill="rgb(255,227,192)"/>
<path d="M28 38h10v2h-10z" fill="rgb(0,0,0)"/>
<path d="M58 38h10v2h-10z" fill="rgb(0,0,0)"/>
<path d="M26 40h2v2h-2z" fill="rgb(0,0,0)"/>
<path d="M28 40h10v2h-10z" fill="rgb(255,227,192)"/>
<path d="M38 40h2v2h2v2h-14v-2h10z" fill="rgb(0,0,0)"/>
<path d="M56 40h2v2h10v2h-14v-2h2z" fill="rgb(0,0,0)"/>
<path d="M58 40h10v2h-10z" fill="rgb(255,227,192)"/>
<path d="M68 40h2v2h-2z" fill="rgb(0,0,0)"/>
<path d="M28 44h14v10h-14z" fill="rgb(255,227,192)"/>
<path d="M42 44h2v2h8v-2h2v10h-2v-6h-8v6h-2z" fill="rgb(0,0,0)"/>
<path d="M54 44h14v10h-14z" fill="rgb(255,227,192)"/>
<path d="M32 46h4v4h-4z" fill="rgb(102,51,0)"/>
<path d="M60 46h4v4h-4z" fill="rgb(102,51,0)"/>
<path d="M18 48h2v6h-2z" fill="rgb(0,0,0)"/>
<path d="M20 48h4v4h-4z" fill="rgb(255,227,192)"/>
<path d="M44 48h8v6h2v2h12v2h-4v2h-8v-2h-2v2h-8v-2h-2v2h-8v-2h-4v-2h12v-2h2z" fill="rgb(255,227,192)"/>
<path d="M72 48h4v4h-4z" fill="rgb(255,227,192)"/>
<path d="M20 52h4v2h-4z" fill="rgb(253,170,131)"/>
<path d="M72 52h4v2h-4z" fill="rgb(253,170,131)"/>
<path d="M26 54h2v2h-2z" fill="rgb(253,170,131)"/>
<path d="M28 54h14v2h-14z" fill="rgb(0,0,0)"/>
<path d="M54 54h14v2h-14z" fill="rgb(0,0,0)"/>
<path d="M68 54h2v2h-2z" fill="rgb(253,170,131)"/>
<path d="M26 56h2v2h-2z" fill="rgb(0,0,0)"/>
<path d="M28 56h2v2h-2z" fill="rgb(253,170,131)"/>
<path d="M66 56h2v2h-2z" fill="rgb(253,170,131)"/>
<path d="M28 58h2v2h-2z" fill="rgb(0,0,0)"/>
<path d="M30 58h4v2h-4z" fill="rgb(253,170,131)"/>
<path d="M42 58h2v2h-2z" fill="rgb(0,0,0)"/>
<path d="M52 58h2v2h-2z" fill="rgb(0,0,0)"/>
<path d="M62 58h4v2h-4z" fill="rgb(253,170,131)"/>
<path d="M66 58h2v2h-2z" fill="rgb(0,0,0)"/>
<path d="M30 60h4v2h-4z" fill="rgb(0,0,0)"/>
<path d="M34 60h10v2h-10z" fill="rgb(253,170,131)"/>
<path d="M44 60h8v2h-8z" fill="rgb(0,0,0)"/>
<path d="M52 60h10v2h-10z" fill="rgb(253,170,131)"/>
<path d="M62 60h4v2h-4z" fill="rgb(0,0,0)"/>
<path d="M34 62h6v4h-2v-2h-4z" fill="rgb(0,0,0)"/>
<path d="M40 62h16v2h-16z" fill="rgb(51,46,39)"/>
<path d="M56 62h6v2h-4v2h-2z" fill="rgb(0,0,0)"/>
<path d="M32 64h2v2h4v2h-6z" fill="rgb(0,0,0)"/>
<path d="M34 64h4v2h-4z" fill="rgb(0,51,102)"/>
<path d="M40 64h2v2h-2z" fill="rgb(255,255,255)"/>
<path d="M42 64h2v2h-2z" fill="rgb(0,0,0)"/>
<path d="M44 64h8v2h-8z" fill="rgb(255,227,192)"/>
<path d="M52 64h2v2h-2z" fill="rgb(0,0,0)"/>
<path d="M54 64h2v2h-2z" fill="rgb(255,255,255)"/>
<path d="M58 64h4v2h-4z" fill="rgb(0,51,102)"/>
<path d="M62 64h2v4h-6v-2h4z" fill="rgb(0,0,0)"/>
<path d="M38 66h2v2h-2z" fill="rgb(0,51,102)"/>
<path d="M40 66h2v2h-2z" fill="rgb(0,0,0)"/>
<path d="M42 66h2v2h-2z" fill="rgb(255,255,255)"/>
<path d="M44 66h8v2h-8z" fill="rgb(0,0,0)"/>
<path d="M52 66h2v2h-2z" fill="rgb(255,255,255)"/>
<path d="M54 66h2v2h-2z" fill="rgb(0,0,0)"/>
<path d="M56 66h2v2h-2z" fill="rgb(0,51,102)"/>
<path d="M30 68h2v4h-2z" fill="rgb(0,0,0)"/>
<path d="M32 68h6v2h2v6h2v-4h2v6h-4v2h-2v4h-2v-6h2v-4h-2v4h-2v2h-4v-2h-2v-2h2
	v-4h2z" fill="rgb(0,51,102)"/>
<path d="M38 68h2v2h-2z" fill="rgb(0,0,0)"/>
<path d="M40 68h2v2h-2z" fill="rgb(0,51,102)"/>
<path d="M42 68h2v4h-2v4h-2v-6h2z" fill="rgb(0,0,0)"/>
<path d="M44 68h8v4h-2v10h-4v-10h-2z" fill="rgb(255,255,255)"/>
<path d="M52 68h2v2h2v6h-2v-4h-2z" fill="rgb(0,0,0)"/>
<path d="M54 68h2v2h-2z" fill="rgb(0,51,102)"/>
<path d="M56 68h2v2h-2z" fill="rgb(0,0,0)"/>
<path d="M58 68h6v4h2v4h2v2h-2v2h-4v-2h-2v-4h-2v4h2v6h-2v-4h-2v-2h-4v-6h2v4h2
	v-6h2z" fill="rgb(0,51,102)"/>
<path d="M64 68h2v4h-2z" fill="rgb(0,0,0)"/>
<path d="M28 72h2v4h-2z" fill="rgb(0,0,0)"/>
<path d="M44 72h2v10h4v-10h2v6h4v2h-4v4h4v-4h2v4h2v10h-2v-2h-6v2h6v2h-8v-10h-4
	v10h-8v-2h6v-2h-6v2h-2v-10h2v-4h2v4h4v-4h-4v-2h4z" fill="rgb(0,0,0)"/>
<path d="M66 72h2v4h-2z" fill="rgb(0,0,0)"/>
<path d="M36 74h2v4h-2z" fill="rgb(0,0,0)"/>
<path d="M58 74h2v4h-2z" fill="rgb(0,0,0)"/>
<path d="M26 76h2v2h2v2h-2v2h-2z" fill="rgb(0,0,0)"/>
<path d="M68 76h2v6h-2v-2h-2v-2h2z" fill="rgb(0,0,0)"/>
<path d="M34 78h2v6h-2v-2h-4v-2h4z" fill="rgb(0,0,0)"/>
<path d="M60 78h2v2h4v2h-4v2h-2z" fill="rgb(0,0,0)"/>
<path d="M28 80h2v2h-2z" fill="rgb(253,170,131)"/>
<path d="M40 80h4v4h-4z" fill="rgb(0,51,102)"/>
<path d="M52 80h4v4h-4z" fill="rgb(0,51,102)"/>
<path d="M66 80h2v2h-2z" fill="rgb(253,170,131)"/>
<path d="M28 82h2v2h-2z" fill="rgb(0,0,0)"/>
<path d="M30 82h4v2h-4z" fill="rgb(253,170,131)"/>
<path d="M62 82h4v2h-4z" fill="rgb(253,170,131)"/>
<path d="M66 82h2v2h-2z" fill="rgb(0,0,0)"/>
<path d="M30 84h4v2h-4z" fill="rgb(0,0,0)"/>
<path d="M62 84h4v2h-4z" fill="rgb(0,0,0)"/>
<path d="M38 86h6v4h-6z" fill="rgb(51,51,51)"/>
<path d="M46 86h4v10h-4z" fill="rgb(255,255,255)"/>
<path d="M52 86h6v4h-6z" fill="rgb(51,51,51)"/>
<path d="M38 92h6v2h-6z" fill="rgb(102,51,0)"/>
<path d="M52 92h6v2h-6z" fill="rgb(102,51,0)"/>
</svg>
